<mxfile host="app.diagrams.net" modified="2022-12-02T08:56:28.294Z" agent="5.0 (Windows NT 10.0; Win64; x64) AppleWebKit/537.36 (KHTML, like Gecko) Chrome/107.0.0.0 Safari/537.36" version="20.6.0" etag="MyebGr_wrWHfiYO5Gniy" type="github">
  <diagram id="yU2vDGZhD7UP2HT_hIju" name="第 1 页">
    <mxGraphModel dx="1065" dy="456" grid="1" gridSize="10" guides="1" tooltips="1" connect="1" arrows="1" fold="1" page="1" pageScale="1" pageWidth="827" pageHeight="1169" math="0" shadow="0">
      <root>
        <mxCell id="0" />
        <mxCell id="1" parent="0" />
        <mxCell id="TpKHZhiWZ6-LyapYqoTX-4" value="" style="endArrow=classic;html=1;rounded=0;fontSize=10;" edge="1" parent="1">
          <mxGeometry width="50" height="50" relative="1" as="geometry">
            <mxPoint x="240" y="320" as="sourcePoint" />
            <mxPoint x="800" y="320" as="targetPoint" />
          </mxGeometry>
        </mxCell>
        <mxCell id="TpKHZhiWZ6-LyapYqoTX-5" value="" style="endArrow=classic;html=1;rounded=0;fontSize=10;" edge="1" parent="1">
          <mxGeometry width="50" height="50" relative="1" as="geometry">
            <mxPoint x="240" y="320" as="sourcePoint" />
            <mxPoint x="240" y="40" as="targetPoint" />
          </mxGeometry>
        </mxCell>
        <mxCell id="TpKHZhiWZ6-LyapYqoTX-7" value="" style="shape=stencil(lVbLUsMwDPyaXDW25Id8LuU/OtNAM5S205bX36OQCVSGKOTmOCtnpV0pbmh12W1ObYPucj0fn9q3bnvdNXTXIHaHXXvurrJqaN3Q6uF4bh/Px5fDdng+bXpkv3o+vvYnvA9xHjj0Qeg+ho3MgOlr537A77vDDd6BcwqPCNlN4xESKryPEMI03jtA/QGGYuAlgaITIGCexlOCRArvgA3+UdLzFd4Z+MQQNd5DNPgwAmWFj0AGvmAtmFSsWAEMrBP2GRiNgFJnLJS8YYnyzfhbAgSMRs4JSGtMDGSInAmCphRElmKoxuA0pSA5GF8IYiO3JAATxLyEkidIZUnSoe6cmapK4+jzZ2Tz4HUCvS+8IcJ42j+NJ8cl7dQ4Wv3vzpRG0RLYnRMy0KLOJKBS4a3Ol0HodIFkshgCcxnLdzO5DL1Krvn0o9EI8O7P4WtINhFhJC3TolJ55n9QEmQdwDTqODXAKlswm38EmRYuqgA5IhvGyFJYTUlIohGQcj0tpAzZoBTj6JyfXrDNFwL4sihCur3gElL4q7AzactEKssKC6TxM8oRYKW0bY2ld5F5vCx+Lj4P3X4/3Jtu39cXJdkaLlm0/gQ=);lineShape=1;fontSize=10;" vertex="1" parent="1">
          <mxGeometry x="279.491356702787" y="317.73884669811156" width="1.1253947025341255" height="2.4748880282188135" as="geometry" />
        </mxCell>
        <mxCell id="TpKHZhiWZ6-LyapYqoTX-8" value="" style="shape=stencil(lVZBctswDHyNrjskQILkOU3/kZk4taaunXHcNvl9qWrkCLQExTdaXpBYYBdkxw9v+6fXXUfu7XI+/dz97Z8v+46/dUT9cb8795e66vix44eX03n343z6fXwef78+Dchh9ev0Z9jhfYwj+DAEkfsYP0gBu/9fvo/4Q3+c4R2cU3gmkKzjCUIKTx4lruO9A+kDPCF544C6n2YQEWkdzwJhfQA8r+Pj9fgJfy3BIl4yosbXAhmEM4GTwidIWMcXQtZ8fYQYBSoZWROuFWKjQqW0jDkiGT0udb+sAkKczlzmLJPGrj0LCGU9IDGCTkkcskE6ZjidkgR4ow2hysjdE0CCmO5JyTOk3JDORkqtdTaqWp2j9x/aZlkNXhMYdGEQSPByIzzDCf4q5JmyjfzZI+oW2M4JaUr3i85ksC6Q7fxUNaQLVCeLpeoy9X8+uiyjpTahYZgZRvNucfymuyMsMydk3eaNG6EIQjPABMkKoHZc5GoNg0SuutdO+Cz1cueqVHVhSzCtIIKiOdSpSUbrYrWWDphVelmtAcR3RTDD8U1S1lVIrQA3aPvQjoChsEZKqR1JG53jyTBflMbSa4SMe2H79VIXn0+fl/5wGF9O8//bp1L9ND6z+PEf);lineShape=1;fontSize=10;" vertex="1" parent="1">
          <mxGeometry x="319.781954612331" y="319.3232833112707" width="1.0847394239865664" height="1.678571210182855" as="geometry" />
        </mxCell>
        <mxCell id="TpKHZhiWZ6-LyapYqoTX-9" value="" style="shape=stencil(hVbLctswDPwaXXdIggTJc5r+R2bi1Jq6dsZx+vj7QlWlCoiF3vTAksDuAuRAD2/Hp9fDkMLb7Xr5evgxPt+OA30aUhrPx8N1vMnTQI8DPbxcrocv18v7+Xl+f32aIqenb5fv0wo/Z1xEqhMohV/zB45o4c+Xz3P8aTxv4xNSVoCUkckBVHRWgJjRyj4gVXBQgIrQ9uNzQDQboDvrlwxKKj4gOBVzs/lE5LQf3yKKjmeEuh/fI7jp9QnZA7RlvVWChOZJENYKFwQRosNpr0ia00yuyl1EKApQEkrcB9SOHDWgu1UzW5mZULqjc0TtGpBd4aguzt/2grNDKmAtRGEkx3qRwZql3BC9bpMajHAN5AOItDekKnYABcW4TwCONaTdgxZuVfI+qwVVZ0RLivfbuaPY9kxOPuKCTia+OPG1IhsNEB2RW7Mix4DqiNx5cdkKkJI8QF8IXzXrYCclGQBmYkwz0HHFBOgWELyi8/J7ncG8dNN9QLDt3MhlqWYUfY40ocHv/2Z8l92TqlTLktDw9+y677xqWdoMzr2JkXV7ipbdKUKa0dAkOUUHEJs9rKRqduwt5uQPvFZn6gmJegMRrngZIekKxBneGP5w9HB3+y0u3b4Zwp7z/n+BkYd/t5+X8XSaL0/b//a2JJ/mmxY9/gY=);lineShape=1;fontSize=10;" vertex="1" parent="1">
          <mxGeometry x="359.2648786802755" y="319.05314855278243" width="1.2157183320097238" height="1.6783993766922025" as="geometry" />
        </mxCell>
        <mxCell id="TpKHZhiWZ6-LyapYqoTX-10" value="" style="shape=stencil(fVbLctswDPwaXXdIEATJc5r+R2bi1J66dsZx+vj7gtXQNSQLN4oCCCywC3JKTx/7l/fdROHjejl/3/06vF73U/oyER1O+93lcNXVlJ6n9PR2vuy+Xc6fp9f5+/2lW/bVj/PPfsLv2S8ghO5E4c+8kQTC/3a+zvbHw+nOnsDJ2BOjpW37Bi7GPvI44fH5AakaBwGVbfvECGQDgOq2PVc0Mfa3Cjy0lzTKcQOMnLftiyBHY18hTj5V4dnzY0HxChpRbcc0QhHHgSA2Iw5j53FKFbkZh0wIDuYaELPtmSbpgJaKaCNIQ3C6nBOajVAI1QGdtM20cnAwKI2lrlJyIkRCoRVoBwOD1lV1lBYG7+/b5jA1ItjzOy8cxKpzK4ROPHLOFyQbQJnt4FXpkw3gK4e1x1YJvjJzHRy7U35zlKnhFw1zJ0VN4MVk0dHlNKwF8AIwD0hbylwg6MPXKdFjBy9CWdaUxSVdDKsLIQuiQ4tWl9IUJYrTt8ZDiDdpZjSvEWXcMDfisauEUsfv4aBD06OqFLAdkU1QvHmkjbVaaM1NiVXrC7IGn9795rT06810yNHla+vaErIzwVb2WujoZLRihtbZXv26+P/OeDscj/Mz5f7/8l2iW/ObJj3/BQ==);lineShape=1;fontSize=10;" vertex="1" parent="1">
          <mxGeometry x="399.78490483124426" y="319.09653054649" width="1.1614655784567092" height="1.4698805211048385" as="geometry" />
        </mxCell>
        <mxCell id="TpKHZhiWZ6-LyapYqoTX-11" value="12-5" style="text;html=1;resizable=0;autosize=1;align=center;verticalAlign=middle;points=[];fillColor=none;strokeColor=none;rounded=0;fontSize=10;" vertex="1" parent="1">
          <mxGeometry x="220" y="320.57" width="50" height="30" as="geometry" />
        </mxCell>
        <mxCell id="TpKHZhiWZ6-LyapYqoTX-14" value="12" style="text;html=1;resizable=0;autosize=1;align=center;verticalAlign=middle;points=[];fillColor=none;strokeColor=none;rounded=0;fontSize=11;" vertex="1" parent="1">
          <mxGeometry x="260" y="321" width="40" height="30" as="geometry" />
        </mxCell>
        <mxCell id="TpKHZhiWZ6-LyapYqoTX-15" value="19" style="text;html=1;resizable=0;autosize=1;align=center;verticalAlign=middle;points=[];fillColor=none;strokeColor=none;rounded=0;fontSize=11;" vertex="1" parent="1">
          <mxGeometry x="300" y="321" width="40" height="30" as="geometry" />
        </mxCell>
        <mxCell id="TpKHZhiWZ6-LyapYqoTX-16" value="26" style="text;html=1;resizable=0;autosize=1;align=center;verticalAlign=middle;points=[];fillColor=none;strokeColor=none;rounded=0;fontSize=11;" vertex="1" parent="1">
          <mxGeometry x="339.87" y="321" width="40" height="30" as="geometry" />
        </mxCell>
        <mxCell id="TpKHZhiWZ6-LyapYqoTX-17" value="2023-1-2" style="text;html=1;resizable=0;autosize=1;align=center;verticalAlign=middle;points=[];fillColor=none;strokeColor=none;rounded=0;fontSize=11;" vertex="1" parent="1">
          <mxGeometry x="364.87" y="321" width="70" height="30" as="geometry" />
        </mxCell>
        <mxCell id="TpKHZhiWZ6-LyapYqoTX-18" value="&lt;pre&gt;&lt;font face=&quot;Helvetica&quot;&gt;&lt;span style=&quot;font-size: 5px;&quot;&gt;①&lt;/span&gt;&lt;/font&gt;&lt;/pre&gt;" style="rounded=0;whiteSpace=wrap;html=1;fontSize=11;fillColor=#d5e8d4;strokeColor=#82b366;" vertex="1" parent="1">
          <mxGeometry x="240" y="280" width="40" height="20" as="geometry" />
        </mxCell>
        <mxCell id="TpKHZhiWZ6-LyapYqoTX-19" value="&lt;font style=&quot;font-size: 11px;&quot;&gt;&lt;span style=&quot;background-color: rgb(0, 0, 0);&quot;&gt;&lt;font style=&quot;&quot; color=&quot;#ccff99&quot;&gt;①：整理算法输入输出内容并对接高通已有的信息&lt;/font&gt;&lt;br&gt;&lt;br&gt;&lt;br&gt;&lt;font style=&quot;&quot; color=&quot;#ff9999&quot;&gt;②：确认集成方案并确保高通能够提供我们算法需要的数据，这个阶段最后算法要确保推出第一版能够使用的VS库&lt;/font&gt;&lt;br&gt;&lt;br&gt;&lt;font style=&quot;&quot; color=&quot;#c3abd0&quot;&gt;③：前一周编写ARCOFT VS Wrap库，后一周确保能够集成完成（不保证效果）&lt;/font&gt;&lt;br&gt;&lt;br&gt;&lt;font style=&quot;&quot; color=&quot;#a9c4eb&quot;&gt;④：ARCSOFT VS 库调优，并设计ARCSOFT VS demo，这一阶段却要确认demo最终方案&lt;br&gt;&lt;/font&gt;&lt;br&gt;&lt;font style=&quot;&quot; color=&quot;#ffe599&quot;&gt;⑤：完成demo preview部分&lt;br&gt;⑥：完成demo record&amp;nbsp;&lt;/font&gt;&lt;span style=&quot;color: rgb(255, 229, 153);&quot;&gt;video&lt;/span&gt;&lt;font style=&quot;&quot; color=&quot;#ffe599&quot;&gt;部分&lt;br&gt;&lt;/font&gt;&lt;br&gt;&lt;font color=&quot;#ff0000&quot;&gt;⑦：整个项目最后调整&lt;/font&gt;&lt;/span&gt;&lt;br&gt;&lt;/font&gt;" style="whiteSpace=wrap;html=1;aspect=fixed;fontFamily=Helvetica;fontSize=5;dashed=1;align=left;" vertex="1" parent="1">
          <mxGeometry x="850" y="51.03" width="270" height="270" as="geometry" />
        </mxCell>
        <mxCell id="TpKHZhiWZ6-LyapYqoTX-20" value="&lt;pre&gt;&lt;font face=&quot;Helvetica&quot;&gt;&lt;span style=&quot;font-size: 5px;&quot;&gt;②&lt;/span&gt;&lt;/font&gt;&lt;/pre&gt;" style="rounded=0;whiteSpace=wrap;html=1;fontSize=11;fillColor=#FFCCCC;strokeColor=#82b366;" vertex="1" parent="1">
          <mxGeometry x="279.49" y="240" width="80.51" height="20" as="geometry" />
        </mxCell>
        <mxCell id="TpKHZhiWZ6-LyapYqoTX-21" value="&lt;pre&gt;&lt;font face=&quot;Helvetica&quot;&gt;&lt;span style=&quot;font-size: 5px;&quot;&gt;③&lt;/span&gt;&lt;/font&gt;&lt;/pre&gt;" style="rounded=0;whiteSpace=wrap;html=1;fontSize=11;fillColor=#e1d5e7;strokeColor=#9673a6;" vertex="1" parent="1">
          <mxGeometry x="360.11" y="200" width="80.51" height="20" as="geometry" />
        </mxCell>
        <mxCell id="TpKHZhiWZ6-LyapYqoTX-22" value="9" style="text;html=1;resizable=0;autosize=1;align=center;verticalAlign=middle;points=[];fillColor=none;strokeColor=none;rounded=0;fontSize=11;" vertex="1" parent="1">
          <mxGeometry x="425" y="321" width="30" height="30" as="geometry" />
        </mxCell>
        <mxCell id="TpKHZhiWZ6-LyapYqoTX-23" value="16" style="text;html=1;resizable=0;autosize=1;align=center;verticalAlign=middle;points=[];fillColor=none;strokeColor=none;rounded=0;fontSize=11;" vertex="1" parent="1">
          <mxGeometry x="455" y="321" width="40" height="30" as="geometry" />
        </mxCell>
        <mxCell id="TpKHZhiWZ6-LyapYqoTX-24" value="23" style="text;html=1;resizable=0;autosize=1;align=center;verticalAlign=middle;points=[];fillColor=none;strokeColor=none;rounded=0;fontSize=11;" vertex="1" parent="1">
          <mxGeometry x="500" y="321" width="40" height="30" as="geometry" />
        </mxCell>
        <mxCell id="TpKHZhiWZ6-LyapYqoTX-25" value="&lt;pre&gt;&lt;font face=&quot;Helvetica&quot;&gt;&lt;span style=&quot;font-size: 5px;&quot;&gt;④&lt;/span&gt;&lt;/font&gt;&lt;/pre&gt;" style="rounded=0;whiteSpace=wrap;html=1;fontSize=11;fillColor=#dae8fc;strokeColor=#6c8ebf;" vertex="1" parent="1">
          <mxGeometry x="440.62" y="160" width="80.51" height="20" as="geometry" />
        </mxCell>
        <mxCell id="TpKHZhiWZ6-LyapYqoTX-26" value="30" style="text;html=1;resizable=0;autosize=1;align=center;verticalAlign=middle;points=[];fillColor=none;strokeColor=none;rounded=0;fontSize=11;" vertex="1" parent="1">
          <mxGeometry x="540" y="321" width="40" height="30" as="geometry" />
        </mxCell>
        <mxCell id="TpKHZhiWZ6-LyapYqoTX-27" value="2-6" style="text;html=1;resizable=0;autosize=1;align=center;verticalAlign=middle;points=[];fillColor=none;strokeColor=none;rounded=0;fontSize=11;" vertex="1" parent="1">
          <mxGeometry x="580" y="321" width="40" height="30" as="geometry" />
        </mxCell>
        <mxCell id="TpKHZhiWZ6-LyapYqoTX-28" value="13" style="text;html=1;resizable=0;autosize=1;align=center;verticalAlign=middle;points=[];fillColor=none;strokeColor=none;rounded=0;fontSize=11;" vertex="1" parent="1">
          <mxGeometry x="620" y="321" width="40" height="30" as="geometry" />
        </mxCell>
        <mxCell id="TpKHZhiWZ6-LyapYqoTX-29" value="20" style="text;html=1;resizable=0;autosize=1;align=center;verticalAlign=middle;points=[];fillColor=none;strokeColor=none;rounded=0;fontSize=11;" vertex="1" parent="1">
          <mxGeometry x="660" y="321" width="40" height="30" as="geometry" />
        </mxCell>
        <mxCell id="TpKHZhiWZ6-LyapYqoTX-30" value="&lt;pre&gt;&lt;font face=&quot;Helvetica&quot;&gt;&lt;span style=&quot;font-size: 5px;&quot;&gt;⑤&lt;/span&gt;&lt;/font&gt;&lt;/pre&gt;" style="rounded=0;whiteSpace=wrap;html=1;fontSize=11;fillColor=#fff2cc;strokeColor=#d6b656;" vertex="1" parent="1">
          <mxGeometry x="559.74" y="120" width="40.26" height="20" as="geometry" />
        </mxCell>
        <mxCell id="TpKHZhiWZ6-LyapYqoTX-31" value="&lt;pre&gt;&lt;font face=&quot;Helvetica&quot;&gt;&lt;span style=&quot;font-size: 5px;&quot;&gt;⑥&lt;/span&gt;&lt;/font&gt;&lt;/pre&gt;" style="rounded=0;whiteSpace=wrap;html=1;fontSize=11;fillColor=#fff2cc;strokeColor=#d6b656;" vertex="1" parent="1">
          <mxGeometry x="600" y="120" width="40.26" height="20" as="geometry" />
        </mxCell>
        <mxCell id="TpKHZhiWZ6-LyapYqoTX-32" value="27" style="text;html=1;resizable=0;autosize=1;align=center;verticalAlign=middle;points=[];fillColor=none;strokeColor=none;rounded=0;fontSize=11;" vertex="1" parent="1">
          <mxGeometry x="700" y="321" width="40" height="30" as="geometry" />
        </mxCell>
        <mxCell id="TpKHZhiWZ6-LyapYqoTX-33" value="3-6" style="text;html=1;resizable=0;autosize=1;align=center;verticalAlign=middle;points=[];fillColor=none;strokeColor=none;rounded=0;fontSize=11;" vertex="1" parent="1">
          <mxGeometry x="740" y="320.57" width="40" height="30" as="geometry" />
        </mxCell>
        <mxCell id="TpKHZhiWZ6-LyapYqoTX-34" value="&lt;pre&gt;&lt;font face=&quot;Helvetica&quot;&gt;&lt;span style=&quot;font-size: 5px;&quot;&gt;⑦&lt;/span&gt;&lt;/font&gt;&lt;/pre&gt;" style="rounded=0;whiteSpace=wrap;html=1;fontSize=11;fillColor=#e51400;strokeColor=#B20000;fontColor=#ffffff;" vertex="1" parent="1">
          <mxGeometry x="641.56" y="79.12" width="118.44" height="20" as="geometry" />
        </mxCell>
        <mxCell id="TpKHZhiWZ6-LyapYqoTX-58" value="" style="shape=stencil(lVbLchoxEPyavXZJM3qeHec/XGUcqBBwYZLYf58hG9YeAZ3ybRHd0k5P96wmvXtZPzyvJgkvx8P+++r35vG4nvTLJLLZrVeHzdGeJr2f9O5pf1h9O+x/7h7n388PJ+Tp6cf+12mH15kXEMKJJOFtXmiCkv6ufJ3x283uAz4iq8OXhNwI3raLjhAzohBCRfCEft7hKl4ysq8goZfbeK0Qj48o+TY+B7Tm8CYZEahYeWHAS7+Nrw3q95fzwlV869ChAwhk/15Qu683IihpQLjwRCwo5JV6G3tsNSSiaRfU6gkVlYjaFMGLpBGdqRrOrlwICZXYIhfk7AmZEpKVeHFCIyqZj5tvnAqEJaGjJ69SQyCyRh1PsD40kh0LZ/QnnNLHTsgIZTQTc6u9gPhOF4pXPXvzPQ1svKQypjlAK0lnQBrx/8x+3UcJcSgYifiuWRhlmEaV7N/tb2+7DmFR60hDx7ivjTAEwSrOnyYQT7QE8ekvNi6YRmHsmW3B5ouNyKHo1mgN1rWBYBMnEkKxE3ybe4Ywgn0VfJ97pTVkm1deVhNaiTPSMkKXTgfuVRsn9eKISjonijzIZLqS9MRFlIVgY5OMMJN1UElRybdHkXz6u8WZVLBYeTFGoePis7ed/+Pt4f1q9bTZbueb2cf/x6uYLc3XOL3/Aw==);lineShape=1;" vertex="1" parent="1">
          <mxGeometry x="439.37740644702535" y="317.3531759101036" width="1.3862984022488187" height="3.402887242332569" as="geometry" />
        </mxCell>
        <mxCell id="TpKHZhiWZ6-LyapYqoTX-59" value="" style="shape=stencil(lVbLctswDPwaXTEEQRLEOU3/IzNxak/dOOO4r78vVFVqwNjb6Y2isCSwWACc5O51//Cym3J6vZxPn3ffD4+X/SQfppwPz/vd+XDx1ST3k9w9nc67T+fT1+fH5fvlYbacV19O3+YTfiy4RGozKKefy4Z2Ku33zsfF/nh4fmOvxCnYN6b585Z9ZhIOAK6UGQAacQ4AIwEOSaEaPfINvW1fKtUWHSKR2/a1E9dgnyglQFAia4O9AvueqZVgLyTAf+PxfCUFCTAd7dkvAA5x2gLcEEYVX9E1AHIlLTCGHm8Qhj45SSWqSCo14JJupG+ATrmCNHsMfQQY0KnraBC2KFUgJBdqjqU27wBlO4kWXfJSKIBWV3KOqXYt1Q4AidqQaaWMAIVSjIEZVvOc1+hSo4RYZWqx2jI8v8oovQTbUWukY3VmQKl3Q3vnDyCoG7EN8TLw3xpJHwkVVDpGOgCUCipOoxT7i4tCkUv/C+je8STG3Neec53UvHK+Anpdab6eNVtb4jYTvEehNPsMiGkwWdvszS4fafXM/DniOiBRjeVvHbJUMqXIkhPdQaMXWZW8ZTrh0ePV2Xi8glGrb9QGmhSWm5ENs7lQAYkrYxf2vBkon20Ub8JQGPG7SeWDAg2eq68d4P+/X0e++Pu0ejocj8vL7O3/8SnmW8szTu5/AQ==);lineShape=1;" vertex="1" parent="1">
          <mxGeometry x="479.6397518354772" y="317.62206710134944" width="1.5341988874644206" height="3.1361572073409962" as="geometry" />
        </mxCell>
        <mxCell id="TpKHZhiWZ6-LyapYqoTX-60" value="" style="shape=stencil(lVbLctswDPwaXXdIgODjnKb/kZk4taaunXGcPv6+UDVSDFrGNDdaxhLEYhfkwA9v+6fX3UDh7XI+fd/9Gp8v+4G/DETjcb87jxddDfw48MPL6bz7dj69H5/n369PU+S0+nH6Oe3we8ZxQqEJReHP/KVWBP735esMOIzHKwAltGgAJYLzfUAkcDEAIUi8DwgIwcTHBqpefKs2niF0P16Qm60Y5ITrbllMPKM58UpQsIxGBOf4LCiW0JWAzfhUFvY+4ouzv1TE0p3f61fOEMtnQUr347X9Ndt6CdkhqDCSJTRWsJ+BrCImjh0FZQGzBTQEJ4NkJFsDE2pzmiCLxFaALDRvd/lWRapDz2eEaItWq5IDUNaD7RtHRIeltORfScrIri+li9f9HY7CYqu1zYLk7M8odv/mtiCG3scCcrbX83CnU1RHE8pesR0LiOLQedNhTeiNoYRq+dFB6YlaNd/X2zzXBCQbr4xVJ4H6kjtfZrdhnwZUZdxqWknzNN10tltA5sUW24CKZo9UGpqropvrpjKqd6aG2N2YZVHiNiD3F2CLy3zaBsS+6pYgjvSqKqHLUFytFqWp81p1aSqr1VeA8urdItwDrpje9sM6Ha5SuPNL7+3WV82eQwkkPa+eI7j0I1Jbk72Z8dnX1H8AdPHxeHsZD4f57Xf9f//Y00/zQ5Ef/wI=);lineShape=1;" vertex="1" parent="1">
          <mxGeometry x="519.5854921042261" y="316.9589966708937" width="1.717442095446677" height="3.5405285423560295" as="geometry" />
        </mxCell>
        <mxCell id="TpKHZhiWZ6-LyapYqoTX-61" value="" style="shape=stencil(lVbLctswDPwaXXdIgM9zmv5HZuLUmrh2xnHz+PtCVZUEjASObzK9ILHALsiBb573d0+7gdzz5Xx63L2O95f9wD8GovG4353Hi3wNfDvwzcPpvPt1Pv053s+/n+4m5PT1+/Qy7fA2xzmkPAWRe58XcoCr/1Z+zvjDeFR45xSeEgJt4wmJFN5n1LyN9w6kD5CV4I0DPGpQAQHRSIgTEiu8Q+VtfCRk3+D/l2AVnwqixnuUsI0vBNYdSKC0ja+0bPexv2RYjICCogkLg2wwrrVlTBVknRDBRQVwRjROKAmsmxzCopPVgMyLBj4CKorRhVjgdErSRyulIDJy1wRIm2JuU8qGczwj1W+kDWWH1jqdqopz9P6dtnl4TaCjiwyfvgnPsnJG0koVZUfDmR6xsb7pnJDBVzmTwbXBW87PoqGmw+ZkKSLJxvn26Kq5TWgajlbH3Or4NThsRBgsxP2sx0XnRhAWRbMobtliPUCMoL0p84CswiZU7YTqEYxOT51rAuLi1nVpZATNQaZmMEjH2N46Xyq9rlapYrwqgqm9STpJTVdhuYa2jKRmSnYKK3Nb17XTOYLX4utIY/U1Yhii/3qRj8+nz8N4OMwvp6//t08lWZqfWXz7Fw==);lineShape=1;" vertex="1" parent="1">
          <mxGeometry x="559.68933510125" y="318.7700771869901" width="1.021329797499978" height="1.930047382431682" as="geometry" />
        </mxCell>
        <mxCell id="TpKHZhiWZ6-LyapYqoTX-62" value="" style="shape=stencil(lVbRbtswDPwavxIUaYnic9f9R4Gmi7EsKdJsa/9+9Ax5oRJz6Jtj30WkeHfSwA9v+6fX3UD4djmfvu9+T8+X/cBfBqLpuN+dp4s9Dfw48MPL6bz7dj79PD4vv1+fZuT89OP0a/6H94WHMOJMIvxYXtQCyH/ffF3wh+l4ha+Q2OGLAuM2PmUgdYQxg47bBBohe0JCEAkIFdS3UECCirhAKQ7PwEFBowBWXxAgbeOzAo4Oj4BBPZKAqcNz0G8lKMnhCVLaxmsC8SPLYf0qIL7+CjWaMK79rRvEgCVYoQKJJwhwRKC+JJsBRSplUC8ikxXVYAgE6odgKkoBoZgoU0+QHMioQulWMCMEc2MB9XMzoUYrkLbPKwEhByvYnqgnpAI5kIYR0DedCCjQBpl3/Ao19AJzP+gxFMZo1u29WQJ8to699xGSBlOWpporLwd4ufG+mTvAV+2tw2E4qonS/7/AGGSFKpQuTFOT4Rahi2sLcA1E92lClSaxdcSWL4GXJfcqFQ4D0oY2+iErhnlUMiRfkgVODXbJzN/JSDNw4LScW1ytBGnK3UqLLiJ1PebuE7AJYSVYHATSY7oZHMYH1Ryh2C8R5YulSal9E5Gd7aRPXROlHXb397XdVVZ8nBcJcldQaoFzF39zstUaZvZnb1P/x9vDv6vby3Q4LDe/6+/9Vc9eLddEfvwD);lineShape=1;" vertex="1" parent="1">
          <mxGeometry x="599.6384542595143" y="316.32569733520734" width="1.6550004671749776" height="4.703335724797156" as="geometry" />
        </mxCell>
        <mxCell id="TpKHZhiWZ6-LyapYqoTX-63" value="" style="shape=stencil(lVbLbhsxDPyavRKiqBfPafofAeLURl07cJw+/r7cLrSJ6OwUue1KQ0kkh0NOcveyf3jeTTG8XC/n77tfh8frfpIvU4yH0353OVzta5L7Se6ezpfdt8v59fS4/D8/zMj568f553zC78UuUAizUQx/loVWqMR/K18X/PFweodn0jLgi5LINj5R0QGfmFoF50diGQxspQRgkKmNNzSKvI2PQi2PL6IEHJBMPJ7PVDJwuFHlAR+I2za+CIUbfNnG10K5uvdk3ca3SuoyABOmhUJ18QzgfFXPCEtYAhk2gzgmgCsFQDlNfbsbmMsRhKglamNIzecKclZXiq0GlRiQKLfOgdWgQYNkJEv+hpIA7fjGIEMfLCY+SuYVSDQnio5I5hXwgdlXmh3BSCtse/RBobYY82sb8BlS22LELs89aFtJCCNVA2Wc5ejxAUiR0SiKwyvmaR7fLxRRqYnndYGUsEpjV5r2ICS+4aYdmLxmlOJPW6g9wemvUAZRbeIFrwYqSCG1O7kqmGkgqITaSMbSUZy4uraM1UCogsCWRnl02mQWdanCvito643xY64a91ytKSWQhxT7i9/Igekt4luzXdFAvc2tVr0TCgg7U2cUAK0kqLn56UJzL8GPXeiKuOIjlDwjmmOS9hs38J+bpv6Pt4+30e3pcDwuk9/7fT/q2dIyJsr9Xw==);lineShape=1;" vertex="1" parent="1">
          <mxGeometry x="640.1819841486176" y="316.4237244303679" width="1.3789267852497384" height="4.327014661596392" as="geometry" />
        </mxCell>
        <mxCell id="TpKHZhiWZ6-LyapYqoTX-64" value="" style="shape=stencil(lVbLctswDPwaXTEkQBLgOU3/IzNxak1dO+M4ffx9oVGpGrQM2zeJ2qXw2AU50NPH9uV9M2D4OB0P3ze/xtfTdqAvA+K4326O40mfBnoe6OntcNx8Ox4+96/z+/vLhJyefhx+Tjv8nnmYoKSJheHPvFIjhHnl60zYjfszQiztcyNwgcLXCQwhGHwJgA6e2teGTwnEwUdIdn9CN57QxxMVL9fxCJQNXqDgdXiFaOEJanWir8A2HIToVQdBqsEHSE67EgOlDv8v/1V8iZB7vDjVYWrpLeV39xfq21UgkoMXYLH6hOrkKxWylU9MELJDyK37C0HcDJghk+3YIsH1kmaoxRKoNXGVkFUCNiTMgM4fiKHkRwhTAPJISOoRio8knXob3KiqzgRboxtti+3rfbIokGzPfNXFDGJd4KtaZwL2rvRckxBSj/f2z6Vld5/rObT07psqEnoT+FNLGJLF+0NRXSk2nhtDd53gZVAB0WbMrefXUiBL0HOGvJD0ILMhZYbqNE0PUrQEHZae6qrOLqsK/WeOjkzDxWFWdcVpXJU2FxaC1tWLKfXG15XqlUkgd84svpa0TB1h2WJd3Nhroy5Df938Otu6Iz/c8FtqYjv7hXjjTmc890l4WdNlI9i1EMWLrDNwcWYS946oBNn5w8NXwTsI+vD/5vk27nbzxfX8e39T1aX5lkvPfwE=);lineShape=1;" vertex="1" parent="1">
          <mxGeometry x="679.7704483522223" y="314.7694375755923" width="1.5501187677831088" height="5.485609412464328" as="geometry" />
        </mxCell>
        <mxCell id="TpKHZhiWZ6-LyapYqoTX-66" value="" style="shape=stencil(nVbLcsIwDPyaXDWW5Yd8pu1/MAOUTCkwQF9/X6VpWuSCQnoLYaWspNXaDc2O6/l+2Xh3PB12T8u3dnFaN3TXeN9u18tDe5Knhu4bmq12h+XjYfeyXfS/9/MO2T097167DO99nAfmLsi7j/4FZwj+681Dj9+0W40vCp8iOLyOxyHbgA8MzsjvwDmFR4JAFp+k8xdAA44OvM4fwRcjPUIJCu+B3HU8JUik8A5Cvo6PHjJWeGfkTwyxxn8TvIhnoZsVngD5Or7IfHW9CaLBpzCwrlc6HA1CpdQFYxgkeDkgAmmFYgFntJTTMKGfkYlIjIAsCtOURBRkaDqKhDUl6VI2uhRERa4OSJbspOv5DyXjC7IlqUwpOtR7M9JVN6zJjWNDQF1ApwtjMTNgqnQXjAZhhqR1auuacJDx2d4YdEIeFHDjXhJQqfDW3mceun2br3AB1nxs3yq55iO+aKwluqnGOz1CvCLqtRk5C6QI1EWPHDZdgFb1yGkm5pKjbpPMLRoBCLk6b8j0CpY56UHLN9mglMVK9CZIVWxQSql2VPFYb505EVLlqM5WdwhAflIEUe0XI6Rkfz1NKVv8J9OUxjJ4XfXI5AL4SdL4x01qBC8Pv9e2VbvZ9Le+8//ra5686q+IdP8J);lineShape=1;" vertex="1" parent="1">
          <mxGeometry x="719.3697808153117" y="316.80252973434506" width="1.1271050360432127" height="4.191324372091852" as="geometry" />
        </mxCell>
        <mxCell id="TpKHZhiWZ6-LyapYqoTX-67" value="" style="shape=stencil(lVbZctswDPwave6QBAmSz2n6H5mJU2vq2hnH6fH3hUalbOiA6zeKwhLXYsmOnj72L++7LriPy/n0fferf73sO/rShdAf97tzf5FVR88dPb2dzrtv59Pn8XX8fn8ZLIfVj9PP4YTfIy54UBxQwf0Zd0qEG3e+joBDf7wFOPisAFzhaBvgA0JSgJiQyzZAHHhlLzuhWvZZ2/uIGLbtxXvVGaMaCctphXT85vGBUXSBpMRGfaIDs7J3cM4IPyKnmX3K2/acwTqegGrY5wKn42FU3rYvi/pIx/91cB2QWzsnQEY1Mi4JXkcUCNkASApcNEB6bPSAC1JQACI4I4ckJNJjQwnJYFH0YJ00cZuLdRrleVnFgzMAPoH1HFCAM+aMQTpnccmGA9dKONnLZBuDMNF4arN4NIhE4BmPXGvjesIeUQNsXZFwWQcUmpStx5Ma76+DFgwSJRGuMLO3zmdCms0BqhF/jqhplm807As1Xb4pKFlzxs3/BEimNK4DjBLVgqI5Giu8oe3eLVh057oZXOis71xoNTctmQAyekZMNYJ036pHsgSvtjmcANHUryKDO/MgmmlpNqFo6lXxaXFvcYncVHpL8aJ/CBFl3NMjQVFZ1MlOm/yiTnZhrwrxn60TiYj68rxDjsffU/cBsrg+3976w2F8/d3+nz/3ZGt8KtLzXw==);lineShape=1;" vertex="1" parent="1">
          <mxGeometry x="759.8421034660566" y="316.92882813139215" width="1.4832450360236786" height="3.5749535294200543" as="geometry" />
        </mxCell>
        <mxCell id="TpKHZhiWZ6-LyapYqoTX-68" value="" style="shape=stencil(fZbdcgIhDIWfZm8zQAg/17Z9j85U606tdqz9e/tmZ0c0uJ47xP0I5JwEBl59bp8/1kNwn6fj4W39M76ctgM/DCGM++36OJ50NPDjwKvN4bh+PR6+9i/z74/n6ctp9H74nlb4nbmSKZeJCu5vngmZ6jzzNAO7cX8FVKEsBuBKrgKg9oAE8gkCbLeUhEoEQKSUDZDLeWYRKIl8MEDRmHwfyBrBG6Amyu4+kDxxMoB3jhwgYu7TVAsVkFcWCs4CTBEoF4RctKeOxHIf8IXYpikHikAIf+MNUW94AGSSaoAoFIE3AlOyeWU+p2E5S9yfQZcQILVuQOwZdJNoS9Ls3wA5u2XZTIHECqeJ9kDpSaauRiNVcAY1QhdBzeLBli5WazpkSsBLV25uRaqWRyFawTQzRRIQYirJzq5atkBqLfouwqUxLBepthWb10vrWZY6UOAeyKCCtDV625mm9gmUC4Wc3VLJMMIE1BsA2FW9JraVlQB7n3c9oMKhCLEvIM1zBPZ25/umNQ1tVEC2G+fFCC8g398O2hNQuQlVu752DBfA+q0ptnqO5JFmeuIuo9DY7KjY71UxdJV4EntifPWorW++R/dC4t7V3DlIB5cHx2bc7eb3yvX//QNFp+bHDT/+Aw==);lineShape=1;" vertex="1" parent="1">
          <mxGeometry x="238.81553380137552" y="278.5973958102885" width="2.595855428952897" height="2.5917978979762464" as="geometry" />
        </mxCell>
        <mxCell id="TpKHZhiWZ6-LyapYqoTX-69" value="" style="shape=stencil(fZbdcgIhDIWfZm8zQAg/17Z9j85U606tdqz9e/tmZ0c0uJ47xP0I5JwEBl59bp8/1kNwn6fj4W39M76ctgM/DCGM++36OJ50NPDjwKvN4bh+PR6+9i/z74/n6ctp9H74nlb4nbmSKZeJCu5vngmZ6jzzNAO7cX8FVKEsBuBKrgKg9oAE8gkCbLeUhEoEQKSUDZDLeWYRKIl8MEDRmHwfyBrBG6Amyu4+kDxxMoB3jhwgYu7TVAsVkFcWCs4CTBEoF4RctKeOxHIf8IXYpikHikAIf+MNUW94AGSSaoAoFIE3AlOyeWU+p2E5S9yfQZcQILVuQOwZdJNoS9Ls3wA5u2XZTIHECqeJ9kDpSaauRiNVcAY1QhdBzeLBli5WazpkSsBLV25uRaqWRyFawTQzRRIQYirJzq5atkBqLfouwqUxLBepthWb10vrWZY6UOAeyKCCtDV625mm9gmUC4Wc3VLJMMIE1BsA2FW9JraVlQB7n3c9oMKhCLEvIM1zBPZ25/umNQ1tVEC2G+fFCC8g398O2hNQuQlVu752DBfA+q0ptnqO5JFmeuIuo9DY7KjY71UxdJV4EntifPWorW++R/dC4t7V3DlIB5cHx2bc7eb3yvX//QNFp+bHDT/+Aw==);lineShape=1;" vertex="1" parent="1">
          <mxGeometry x="238.81553380137552" y="238.5973958102885" width="2.595855428952897" height="2.5917978979762464" as="geometry" />
        </mxCell>
        <mxCell id="TpKHZhiWZ6-LyapYqoTX-70" value="" style="shape=stencil(fZbdcgIhDIWfZm8zQAg/17Z9j85U606tdqz9e/tmZ0c0uJ47xP0I5JwEBl59bp8/1kNwn6fj4W39M76ctgM/DCGM++36OJ50NPDjwKvN4bh+PR6+9i/z74/n6ctp9H74nlb4nbmSKZeJCu5vngmZ6jzzNAO7cX8FVKEsBuBKrgKg9oAE8gkCbLeUhEoEQKSUDZDLeWYRKIl8MEDRmHwfyBrBG6Amyu4+kDxxMoB3jhwgYu7TVAsVkFcWCs4CTBEoF4RctKeOxHIf8IXYpikHikAIf+MNUW94AGSSaoAoFIE3AlOyeWU+p2E5S9yfQZcQILVuQOwZdJNoS9Ls3wA5u2XZTIHECqeJ9kDpSaauRiNVcAY1QhdBzeLBli5WazpkSsBLV25uRaqWRyFawTQzRRIQYirJzq5atkBqLfouwqUxLBepthWb10vrWZY6UOAeyKCCtDV625mm9gmUC4Wc3VLJMMIE1BsA2FW9JraVlQB7n3c9oMKhCLEvIM1zBPZ25/umNQ1tVEC2G+fFCC8g398O2hNQuQlVu752DBfA+q0ptnqO5JFmeuIuo9DY7KjY71UxdJV4EntifPWorW++R/dC4t7V3DlIB5cHx2bc7eb3yvX//QNFp+bHDT/+Aw==);lineShape=1;" vertex="1" parent="1">
          <mxGeometry x="239.34450349757287" y="200.08881047049005" width="1.5072708942307145" height="1.5049149085024833" as="geometry" />
        </mxCell>
        <mxCell id="TpKHZhiWZ6-LyapYqoTX-71" value="" style="shape=stencil(fZbdcgIhDIWfZm8zQAg/17Z9j85U606tdqz9e/tmZ0c0uJ47xP0I5JwEBl59bp8/1kNwn6fj4W39M76ctgM/DCGM++36OJ50NPDjwKvN4bh+PR6+9i/z74/n6ctp9H74nlb4nbmSKZeJCu5vngmZ6jzzNAO7cX8FVKEsBuBKrgKg9oAE8gkCbLeUhEoEQKSUDZDLeWYRKIl8MEDRmHwfyBrBG6Amyu4+kDxxMoB3jhwgYu7TVAsVkFcWCs4CTBEoF4RctKeOxHIf8IXYpikHikAIf+MNUW94AGSSaoAoFIE3AlOyeWU+p2E5S9yfQZcQILVuQOwZdJNoS9Ls3wA5u2XZTIHECqeJ9kDpSaauRiNVcAY1QhdBzeLBli5WazpkSsBLV25uRaqWRyFawTQzRRIQYirJzq5atkBqLfouwqUxLBepthWb10vrWZY6UOAeyKCCtDV625mm9gmUC4Wc3VLJMMIE1BsA2FW9JraVlQB7n3c9oMKhCLEvIM1zBPZ25/umNQ1tVEC2G+fFCC8g398O2hNQuQlVu752DBfA+q0ptnqO5JFmeuIuo9DY7KjY71UxdJV4EntifPWorW++R/dC4t7V3DlIB5cHx2bc7eb3yvX//QNFp+bHDT/+Aw==);lineShape=1;" vertex="1" parent="1">
          <mxGeometry x="239.98966478789544" y="159.44364918016748" width="1.5072708942307145" height="1.5049149085024833" as="geometry" />
        </mxCell>
        <mxCell id="TpKHZhiWZ6-LyapYqoTX-72" value="" style="shape=stencil(fZbdcgIhDIWfZm8zQAg/17Z9j85U606tdqz9e/tmZ0c0uJ47xP0I5JwEBl59bp8/1kNwn6fj4W39M76ctgM/DCGM++36OJ50NPDjwKvN4bh+PR6+9i/z74/n6ctp9H74nlb4nbmSKZeJCu5vngmZ6jzzNAO7cX8FVKEsBuBKrgKg9oAE8gkCbLeUhEoEQKSUDZDLeWYRKIl8MEDRmHwfyBrBG6Amyu4+kDxxMoB3jhwgYu7TVAsVkFcWCs4CTBEoF4RctKeOxHIf8IXYpikHikAIf+MNUW94AGSSaoAoFIE3AlOyeWU+p2E5S9yfQZcQILVuQOwZdJNoS9Ls3wA5u2XZTIHECqeJ9kDpSaauRiNVcAY1QhdBzeLBli5WazpkSsBLV25uRaqWRyFawTQzRRIQYirJzq5atkBqLfouwqUxLBepthWb10vrWZY6UOAeyKCCtDV625mm9gmUC4Wc3VLJMMIE1BsA2FW9JraVlQB7n3c9oMKhCLEvIM1zBPZ25/umNQ1tVEC2G+fFCC8g398O2hNQuQlVu752DBfA+q0ptnqO5JFmeuIuo9DY7KjY71UxdJV4EntifPWorW++R/dC4t7V3DlIB5cHx2bc7eb3yvX//QNFp+bHDT/+Aw==);lineShape=1;" vertex="1" parent="1">
          <mxGeometry x="239.6670841427341" y="119.76622982532876" width="1.5072708942307145" height="1.5049149085024833" as="geometry" />
        </mxCell>
        <mxCell id="TpKHZhiWZ6-LyapYqoTX-73" value="" style="shape=stencil(fZbdcgIhDIWfZm8zQAg/17Z9j85U606tdqz9e/tmZ0c0uJ47xP0I5JwEBl59bp8/1kNwn6fj4W39M76ctgM/DCGM++36OJ50NPDjwKvN4bh+PR6+9i/z74/n6ctp9H74nlb4nbmSKZeJCu5vngmZ6jzzNAO7cX8FVKEsBuBKrgKg9oAE8gkCbLeUhEoEQKSUDZDLeWYRKIl8MEDRmHwfyBrBG6Amyu4+kDxxMoB3jhwgYu7TVAsVkFcWCs4CTBEoF4RctKeOxHIf8IXYpikHikAIf+MNUW94AGSSaoAoFIE3AlOyeWU+p2E5S9yfQZcQILVuQOwZdJNoS9Ls3wA5u2XZTIHECqeJ9kDpSaauRiNVcAY1QhdBzeLBli5WazpkSsBLV25uRaqWRyFawTQzRRIQYirJzq5atkBqLfouwqUxLBepthWb10vrWZY6UOAeyKCCtDV625mm9gmUC4Wc3VLJMMIE1BsA2FW9JraVlQB7n3c9oMKhCLEvIM1zBPZ25/umNQ1tVEC2G+fFCC8g398O2hNQuQlVu752DBfA+q0ptnqO5JFmeuIuo9DY7KjY71UxdJV4EntifPWorW++R/dC4t7V3DlIB5cHx2bc7eb3yvX//QNFp+bHDT/+Aw==);lineShape=1;" vertex="1" parent="1">
          <mxGeometry x="239.98966478789544" y="79.12106853500615" width="1.5072708942307145" height="1.50491490850252" as="geometry" />
        </mxCell>
        <mxCell id="TpKHZhiWZ6-LyapYqoTX-74" value="阶段一" style="text;html=1;resizable=0;autosize=1;align=center;verticalAlign=middle;points=[];fillColor=none;strokeColor=none;rounded=0;fontSize=10;" vertex="1" parent="1">
          <mxGeometry x="175" y="275" width="60" height="30" as="geometry" />
        </mxCell>
        <mxCell id="TpKHZhiWZ6-LyapYqoTX-75" value="阶段二" style="text;html=1;resizable=0;autosize=1;align=center;verticalAlign=middle;points=[];fillColor=none;strokeColor=none;rounded=0;fontSize=10;" vertex="1" parent="1">
          <mxGeometry x="175" y="238.6" width="60" height="30" as="geometry" />
        </mxCell>
        <mxCell id="TpKHZhiWZ6-LyapYqoTX-76" value="阶段三" style="text;html=1;resizable=0;autosize=1;align=center;verticalAlign=middle;points=[];fillColor=none;strokeColor=none;rounded=0;fontSize=10;" vertex="1" parent="1">
          <mxGeometry x="173.91" y="201.59" width="60" height="30" as="geometry" />
        </mxCell>
        <mxCell id="TpKHZhiWZ6-LyapYqoTX-77" value="阶段四" style="text;html=1;resizable=0;autosize=1;align=center;verticalAlign=middle;points=[];fillColor=none;strokeColor=none;rounded=0;fontSize=10;" vertex="1" parent="1">
          <mxGeometry x="173.91" y="160.95" width="60" height="30" as="geometry" />
        </mxCell>
        <mxCell id="TpKHZhiWZ6-LyapYqoTX-78" value="阶段五\六" style="text;html=1;resizable=0;autosize=1;align=center;verticalAlign=middle;points=[];fillColor=none;strokeColor=none;rounded=0;fontSize=10;" vertex="1" parent="1">
          <mxGeometry x="168.91" y="120" width="70" height="30" as="geometry" />
        </mxCell>
        <mxCell id="TpKHZhiWZ6-LyapYqoTX-79" value="阶段七" style="text;html=1;resizable=0;autosize=1;align=center;verticalAlign=middle;points=[];fillColor=none;strokeColor=none;rounded=0;fontSize=10;" vertex="1" parent="1">
          <mxGeometry x="178.82" y="79.12" width="60" height="30" as="geometry" />
        </mxCell>
        <mxCell id="TpKHZhiWZ6-LyapYqoTX-80" value="&lt;pre&gt;&lt;font face=&quot;Helvetica&quot;&gt;&lt;span style=&quot;font-size: 5px;&quot;&gt;春节&lt;/span&gt;&lt;/font&gt;&lt;/pre&gt;" style="rounded=0;whiteSpace=wrap;html=1;fontSize=11;fillColor=#a0522d;strokeColor=#6D1F00;fontColor=#ffffff;" vertex="1" parent="1">
          <mxGeometry x="521.3" y="150" width="40.26" height="20" as="geometry" />
        </mxCell>
        <mxCell id="TpKHZhiWZ6-LyapYqoTX-81" value="&lt;b&gt;时间&lt;/b&gt;" style="text;html=1;resizable=0;autosize=1;align=center;verticalAlign=middle;points=[];fillColor=none;strokeColor=none;rounded=0;fontSize=10;" vertex="1" parent="1">
          <mxGeometry x="780" y="330.57" width="50" height="30" as="geometry" />
        </mxCell>
        <mxCell id="TpKHZhiWZ6-LyapYqoTX-82" value="&lt;b&gt;阶段&lt;/b&gt;" style="text;html=1;resizable=0;autosize=1;align=center;verticalAlign=middle;points=[];fillColor=none;strokeColor=none;rounded=0;fontSize=10;" vertex="1" parent="1">
          <mxGeometry x="189.34000000000003" y="20" width="50" height="30" as="geometry" />
        </mxCell>
      </root>
    </mxGraphModel>
  </diagram>
</mxfile>
